<svg xmlns="http://www.w3.org/2000/svg" width="1920" height="489" viewBox="0 0 1920 489" fill="none"><g opacity="0.6"><path d="M242 0L242 488" stroke="url(#paint0_linear_2642_10707)"></path><path d="M262 0L262 488" stroke="url(#paint1_linear_2642_10707)"></path><path d="M478 0L478 488" stroke="url(#paint2_linear_2642_10707)"></path><path d="M498 0L498 488" stroke="url(#paint3_linear_2642_10707)"></path><path d="M714 0L714 488" stroke="url(#paint4_linear_2642_10707)"></path><path d="M734 0L734 488" stroke="url(#paint5_linear_2642_10707)"></path><path d="M950 0L950 488" stroke="url(#paint6_linear_2642_10707)"></path><path d="M970 0L970 488" stroke="url(#paint7_linear_2642_10707)"></path><path d="M1186 0L1186 488" stroke="url(#paint8_linear_2642_10707)"></path><path d="M1206 0L1206 488" stroke="url(#paint9_linear_2642_10707)"></path><path d="M1422 0.000488281L1422 488.001" stroke="url(#paint10_linear_2642_10707)"></path><path d="M1442 0.000488281L1442 488.001" stroke="url(#paint11_linear_2642_10707)"></path><path d="M1658 0.000488281L1658 488.001" stroke="url(#paint12_linear_2642_10707)"></path><path d="M1678 0.000488281L1678 488.001" stroke="url(#paint13_linear_2642_10707)"></path></g><path d="M96.7563 392C43.3292 392 0 435.329 0 488.756H96.7563L96.7563 392Z" fill="#D9D3FF"></path><path d="M121.889 441.695C135.612 441.695 146.736 430.57 146.736 416.847C146.736 403.124 135.612 392 121.889 392C108.166 392 97.0418 403.124 97.0418 416.847C97.0418 430.57 108.166 441.695 121.889 441.695Z" fill="#C5E8FF"></path><path d="M1927.89 159V320.885H1766C1766 231.395 1838.52 159 1927.89 159Z" fill="#D9D3FF"></path><circle cx="1854" cy="395" r="74" fill="#D3FEE8"></circle><path d="M1678 270V372.508H1780.31C1780.31 315.952 1734.56 270 1678 270Z" fill="#FFD4EE"></path><defs><linearGradient id="paint0_linear_2642_10707" x1="242.5" y1="8.74228e-08" x2="242.5" y2="488" gradientUnits="userSpaceOnUse"><stop stop-color="#B2DBFA" stop-opacity="0"></stop><stop offset="1" stop-color="#B2DBFA"></stop></linearGradient><linearGradient id="paint1_linear_2642_10707" x1="262.5" y1="8.74228e-08" x2="262.5" y2="488" gradientUnits="userSpaceOnUse"><stop stop-color="#B2DBFA" stop-opacity="0"></stop><stop offset="1" stop-color="#B2DBFA"></stop></linearGradient><linearGradient id="paint2_linear_2642_10707" x1="478.5" y1="8.74228e-08" x2="478.5" y2="488" gradientUnits="userSpaceOnUse"><stop stop-color="#B2DBFA" stop-opacity="0"></stop><stop offset="1" stop-color="#B2DBFA"></stop></linearGradient><linearGradient id="paint3_linear_2642_10707" x1="498.5" y1="8.74228e-08" x2="498.5" y2="488" gradientUnits="userSpaceOnUse"><stop stop-color="#B2DBFA" stop-opacity="0"></stop><stop offset="1" stop-color="#B2DBFA"></stop></linearGradient><linearGradient id="paint4_linear_2642_10707" x1="714.5" y1="8.74228e-08" x2="714.5" y2="488" gradientUnits="userSpaceOnUse"><stop stop-color="#B2DBFA" stop-opacity="0"></stop><stop offset="1" stop-color="#B2DBFA"></stop></linearGradient><linearGradient id="paint5_linear_2642_10707" x1="734.5" y1="8.74228e-08" x2="734.5" y2="488" gradientUnits="userSpaceOnUse"><stop stop-color="#B2DBFA" stop-opacity="0"></stop><stop offset="1" stop-color="#B2DBFA"></stop></linearGradient><linearGradient id="paint6_linear_2642_10707" x1="950.5" y1="8.74228e-08" x2="950.5" y2="488" gradientUnits="userSpaceOnUse"><stop stop-color="#B2DBFA" stop-opacity="0"></stop><stop offset="1" stop-color="#B2DBFA"></stop></linearGradient><linearGradient id="paint7_linear_2642_10707" x1="970.5" y1="8.74228e-08" x2="970.5" y2="488" gradientUnits="userSpaceOnUse"><stop stop-color="#B2DBFA" stop-opacity="0"></stop><stop offset="1" stop-color="#B2DBFA"></stop></linearGradient><linearGradient id="paint8_linear_2642_10707" x1="1186.5" y1="8.74228e-08" x2="1186.5" y2="488" gradientUnits="userSpaceOnUse"><stop stop-color="#B2DBFA" stop-opacity="0"></stop><stop offset="1" stop-color="#B2DBFA"></stop></linearGradient><linearGradient id="paint9_linear_2642_10707" x1="1206.5" y1="8.74228e-08" x2="1206.5" y2="488" gradientUnits="userSpaceOnUse"><stop stop-color="#B2DBFA" stop-opacity="0"></stop><stop offset="1" stop-color="#B2DBFA"></stop></linearGradient><linearGradient id="paint10_linear_2642_10707" x1="1422.5" y1="0.000488369" x2="1422.5" y2="488.001" gradientUnits="userSpaceOnUse"><stop stop-color="#B2DBFA" stop-opacity="0"></stop><stop offset="1" stop-color="#B2DBFA"></stop></linearGradient><linearGradient id="paint11_linear_2642_10707" x1="1442.5" y1="0.000488369" x2="1442.5" y2="488.001" gradientUnits="userSpaceOnUse"><stop stop-color="#B2DBFA" stop-opacity="0"></stop><stop offset="1" stop-color="#B2DBFA"></stop></linearGradient><linearGradient id="paint12_linear_2642_10707" x1="1658.5" y1="0.000488369" x2="1658.5" y2="488.001" gradientUnits="userSpaceOnUse"><stop stop-color="#B2DBFA" stop-opacity="0"></stop><stop offset="1" stop-color="#B2DBFA"></stop></linearGradient><linearGradient id="paint13_linear_2642_10707" x1="1678.5" y1="0.000488369" x2="1678.5" y2="488.001" gradientUnits="userSpaceOnUse"><stop stop-color="#B2DBFA" stop-opacity="0"></stop><stop offset="1" stop-color="#B2DBFA"></stop></linearGradient></defs></svg>